<?xml version="1.0" encoding="iso-8859-1"?>
<!-- Generator: Adobe Illustrator 18.0.0, SVG Export Plug-In . SVG Version: 6.00 Build 0)  -->
<!DOCTYPE svg PUBLIC "-//W3C//DTD SVG 1.1//EN" "http://www.w3.org/Graphics/SVG/1.1/DTD/svg11.dtd">
<svg version="1.1" id="Capa_1" xmlns="http://www.w3.org/2000/svg" xmlns:xlink="http://www.w3.org/1999/xlink" x="0px" y="0px"
	 viewBox="0 0 292.5 292.5" style="enable-background:new 0 0 292.5 292.5;" xml:space="preserve">
<path d="M222.75,69.5h-20v-13c0-31.154-25.346-56.5-56.5-56.5s-56.5,25.346-56.5,56.5v13H70.416
	c-11.229,0-20.666,9.104-20.666,20.334v182.332c0,11.231,9.437,20.334,20.666,20.334H222.75c11.229,0,20-9.103,20-20.334V89.834
	C242.75,78.604,233.979,69.5,222.75,69.5z M111.75,56.5c0-19.023,15.477-34.5,34.5-34.5s34.5,15.477,34.5,34.5v13h-69V56.5z
	 M208.083,164.867c0,7.529-6.104,13.633-13.633,13.633h-19.273l16.482,45.123c0.879,2.404-1.861,4.511-3.959,3.043l-7.479-5.23
	c-1.318-0.915-2.999-1.135-4.509-0.59c-1.51,0.545-2.662,1.787-3.093,3.334l-2.525,9.104c-0.683,2.458-4.119,2.588-4.985,0.188
	L147.11,183.59l-18.004,49.855c-0.865,2.398-4.3,2.27-4.983-0.186l-2.523-9.062c-0.43-1.547-1.583-2.771-3.093-3.316
	c-1.51-0.545-3.19-0.289-4.509,0.625l-7.524,5.277c-2.097,1.471-4.841-0.635-3.962-3.042l16.53-45.241H99.77
	c-8.628,0-15.687-7.059-15.687-15.686v-21.518c0-5.413,3.06-10.315,7.722-13.065c4.664-2.75,10.592-2.722,15.329-0.102
	l24.124,13.593c0.158-2.595,2.308-4.222,4.942-4.222h21.766c2.636,0,4.604,1.628,4.761,4.225l23.955-13.811
	c4.834-2.673,10.258-2.536,14.987,0.379c4.083,2.517,6.414,7.114,6.414,11.91V164.867z"/>
<g>
</g>
<g>
</g>
<g>
</g>
<g>
</g>
<g>
</g>
<g>
</g>
<g>
</g>
<g>
</g>
<g>
</g>
<g>
</g>
<g>
</g>
<g>
</g>
<g>
</g>
<g>
</g>
<g>
</g>
</svg>
