<?xml version="1.0" encoding="iso-8859-1"?>
<!-- Generator: Adobe Illustrator 19.0.0, SVG Export Plug-In . SVG Version: 6.00 Build 0)  -->
<svg version="1.1" id="Layer_1" xmlns="http://www.w3.org/2000/svg" xmlns:xlink="http://www.w3.org/1999/xlink" x="0px" y="0px"
	 viewBox="0 0 512.001 512.001" style="enable-background:new 0 0 512.001 512.001;" xml:space="preserve">
<g>
	<g>
		<g>
			<path d="M482.357,118.568H29.642C13.298,118.568,0,131.866,0,148.21V256c0,16.344,13.298,29.642,29.642,29.642h289.954
				c4.466,0,8.084-3.618,8.084-8.084c0-4.466-3.618-8.084-8.084-8.084H29.642c-7.43,0-13.474-6.044-13.474-13.474V148.21
				c0-7.43,6.044-13.474,13.474-13.474h452.715c7.43,0,13.474,6.044,13.474,13.474v97.011c0,4.466,3.618,8.084,8.084,8.084
				c4.466,0,8.084-3.618,8.084-8.084V148.21C511.999,131.866,498.701,118.568,482.357,118.568z"/>
			<path d="M496.584,264.242l-60.181-23.549c0.775-1.241,1.222-2.707,1.222-4.277v-26.227h26.947v26.228
				c0,4.466,3.618,8.084,8.084,8.084c4.466,0,8.084-3.619,8.084-8.084v-68.625c0-4.466-3.618-8.084-8.084-8.084
				c-4.466,0-8.084,3.618-8.084,8.084v26.228h-26.947v-26.228c0-4.466-3.618-8.084-8.084-8.084c-4.466,0-8.084,3.618-8.084,8.084
				v67.054l-54.973-21.512v-28.386c0-4.832,6.296-9.072,13.474-9.072h21.558c4.466,0,8.084-3.619,8.084-8.084
				c0-4.466-3.618-8.084-8.084-8.084h-21.558c-16.344,0-29.642,11.322-29.642,25.24v25.076c-5.441,0.603-10.643,3.016-14.674,7.047
				c0,0,0,0-0.001,0.001c-1.982,1.982-3.573,4.247-4.75,6.684l-10.135-16.133c9.839-4.111,16.628-12.731,16.628-22.676
				c0-13.918-13.298-25.24-29.642-25.24h-32.337c-4.466,0-8.084,3.619-8.084,8.084v68.625c0,4.466,3.618,8.084,8.084,8.084
				c4.466,0,8.084-3.618,8.084-8.084v-60.541h24.253c7.178,0,13.474,4.239,13.474,9.072c0,4.811-6.236,9.033-13.37,9.073
				c-0.081-0.002-0.161-0.002-0.24,0H296.96c-4.466,0-8.084,3.618-8.084,8.084c0,4.466,3.618,8.084,8.084,8.084h6.31l19.181,30.529
				c1.77,2.817,4.993,4.169,8.08,3.691l52.28,133.606c3.396,8.677,11.274,14.55,20.559,15.33c0.696,0.058,1.388,0.087,2.078,0.087
				c8.495-0.001,16.312-4.387,20.745-11.778l27.761-46.269l46.269-27.761c7.989-4.793,12.468-13.538,11.691-22.823
				C511.134,275.516,505.26,267.639,496.584,264.242z M491.905,293.76l-48.002,28.801c-1.138,0.683-2.09,1.636-2.773,2.773
				l-28.801,48.002c-1.621,2.703-4.462,4.162-7.607,3.896c-3.142-0.263-5.704-2.174-6.853-5.109L345.19,237.501
				c-1.216-3.106-0.476-6.637,1.882-8.996l0.001-0.001c1.604-1.605,3.751-2.46,5.938-2.46c0.368,0,0.735,0.024,1.101,0.072
				c1.104,0.693,2.389,1.125,3.766,1.213L490.691,279.3c2.936,1.149,4.846,3.711,5.109,6.853
				C496.064,289.294,494.608,292.138,491.905,293.76z"/>
			<path d="M71.68,228.333H50.122c-4.466,0-8.084,3.618-8.084,8.084c0,4.466,3.618,8.084,8.084,8.084H71.68
				c16.344,0,29.642-11.323,29.642-25.24c0-13.918-13.298-25.241-29.642-25.241H60.901c-7.178,0-13.474-4.24-13.474-9.073
				s6.296-9.072,13.474-9.072h21.558c4.466,0,8.084-3.618,8.084-8.084c0-4.466-3.618-8.084-8.084-8.084H60.901
				c-16.344,0-29.642,11.322-29.642,25.24s13.298,25.241,29.642,25.241H71.68c7.178,0,13.474,4.24,13.474,9.073
				C85.154,224.094,78.858,228.333,71.68,228.333z"/>
			<path d="M217.196,159.708c-13.375,0-24.377,8.242-26.161,19.597l-8.774,55.858c-0.693,4.411,2.321,8.549,6.731,9.241
				c4.408,0.686,8.549-2.32,9.241-6.731l2.97-18.905h31.983l2.97,18.905c0.626,3.985,4.065,6.831,7.975,6.831
				c0.418,0,0.84-0.032,1.265-0.099c4.411-0.693,7.425-4.83,6.731-9.241l-8.774-55.857
				C241.572,167.95,230.57,159.708,217.196,159.708z M203.744,202.599l3.264-20.785c0.448-2.854,4.47-5.937,10.187-5.937
				c5.717,0,9.739,3.082,10.187,5.938l3.264,20.784H203.744z"/>
			<path d="M140.665,175.877h21.558c4.466,0,8.084-3.618,8.084-8.084c0-4.466-3.618-8.084-8.084-8.084h-21.558
				c-16.344,0-29.642,11.322-29.642,25.24v34.314c0,13.917,13.298,25.24,29.642,25.24h21.558c4.466,0,8.084-3.618,8.084-8.084
				c0-4.466-3.618-8.084-8.084-8.084h-21.558c-7.178,0-13.474-4.239-13.474-9.072v-9.073h35.032c4.466,0,8.084-3.618,8.084-8.084
				c0-4.466-3.618-8.084-8.084-8.084h-35.032v-9.073C127.192,180.115,133.488,175.877,140.665,175.877z"/>
		</g>
	</g>
</g>
<g>
</g>
<g>
</g>
<g>
</g>
<g>
</g>
<g>
</g>
<g>
</g>
<g>
</g>
<g>
</g>
<g>
</g>
<g>
</g>
<g>
</g>
<g>
</g>
<g>
</g>
<g>
</g>
<g>
</g>
</svg>
